<svg width="276" height="276" viewBox="0 0 276 276" fill="none" xmlns="http://www.w3.org/2000/svg">
<g filter="url(#filter0_d_1937_4154)">
<mask id="mask0_1937_4154" style="mask-type:alpha" maskUnits="userSpaceOnUse" x="0" y="0" width="272" height="272">
<circle cx="136" cy="136" r="136" transform="rotate(-90 136 136)" fill="white"/>
<circle cx="136" cy="136" r="136" transform="rotate(-90 136 136)" fill="white"/>
<circle cx="136" cy="136" r="136" transform="rotate(-90 136 136)" fill="white"/>
</mask>
<g mask="url(#mask0_1937_4154)">
<circle cx="136" cy="136" r="135.5" transform="rotate(-90 136 136)" fill="white" stroke="#6366F1"/>
<path d="M122.856 124.039C124.513 124.034 125.86 125.373 125.865 127.029L125.897 137.476L125.917 143.868L144.486 143.811L144.465 137.419L144.434 126.973C144.429 125.316 145.768 123.969 147.424 123.964C149.08 123.959 150.428 125.298 150.433 126.954L150.464 137.401L150.485 143.793L150.515 143.793C151.91 143.788 153.299 143.99 154.638 144.39L161.531 146.451L161.615 173.599L163.216 175.555L163.255 212.404C163.263 215.283 160.936 217.625 158.058 217.633L143.361 217.678L143.401 230.891C143.406 232.442 142.15 233.704 140.599 233.709L137.403 233.719L137.428 241.731L133.427 241.743L133.402 233.731L130.206 233.741C128.655 233.746 127.393 232.491 127.388 230.94L127.348 217.728L112.65 217.773C109.77 217.782 107.43 215.455 107.422 212.577L107.383 175.727L108.973 173.761L108.889 146.613L115.769 144.51C117.105 144.102 118.492 143.891 119.888 143.888L119.918 143.888L119.898 137.496L119.866 127.049C119.861 125.393 121.2 124.046 122.856 124.041L122.856 124.039Z" fill="#EDEDED"/>
<path d="M107.382 175.727L107.42 212.577C107.429 215.457 109.769 217.783 112.649 217.773L117.267 217.758C103.302 196.537 116.227 176.009 116.266 175.7L107.382 175.728L107.382 175.727Z" fill="#C9C9C9"/>
<path d="M108.972 173.759L107.382 175.727L116.266 175.698L118.807 173.729L108.972 173.759Z" fill="#C9C9C9"/>
<path d="M108.89 146.611L108.973 173.759L118.807 173.729L118.964 143.92C117.881 143.992 116.809 144.191 115.77 144.507L108.89 146.611Z" fill="#C9C9C9"/>
<path d="M156.554 175.576C156.569 175.85 167.417 194.855 155.63 217.641L158.057 217.635C160.935 217.626 163.263 215.283 163.255 212.404L163.217 175.555L156.554 175.575L156.554 175.576Z" fill="white"/>
<path d="M119.176 196.702C119.181 198.058 119.484 199.343 120.025 200.495C121.466 203.561 124.587 205.678 128.199 205.668L142.512 205.625C147.479 205.61 151.493 201.571 151.478 196.602C151.474 195.245 151.17 193.961 150.629 192.808C149.188 189.742 146.069 187.624 142.458 187.635L128.144 187.678C123.178 187.695 119.163 191.733 119.178 196.699L119.176 196.702Z" fill="white"/>
<path d="M152.058 173.627L156.552 175.575L163.215 175.555L161.612 173.597L152.056 173.627L152.058 173.627Z" fill="white"/>
<path d="M151.787 143.845L152.059 173.627L161.615 173.597L161.533 146.45L154.64 144.389C153.711 144.112 152.755 143.928 151.789 143.845L151.787 143.845Z" fill="white"/>
<path d="M148.073 124.032C149.176 125.868 149.273 131.537 149.101 136.664C149.921 136.818 150.465 137.088 150.466 137.401L150.435 126.954C150.43 125.52 149.42 124.325 148.074 124.034L148.073 124.032Z" fill="white"/>
<path d="M149.101 136.664C149.007 139.428 148.837 142.036 148.705 143.798L150.485 143.793L150.465 137.401C150.465 137.09 149.921 136.819 149.099 136.664L149.101 136.664Z" fill="white"/>
<path d="M123.273 124.066C124.152 126.021 124.287 131.511 124.187 136.681C124.197 136.681 124.207 136.684 124.217 136.684C124.264 136.691 124.307 136.697 124.351 136.706C124.513 136.731 124.665 136.762 124.806 136.796C124.852 136.808 124.899 136.819 124.944 136.831C124.978 136.839 125.011 136.848 125.041 136.858C125.267 136.925 125.456 137.003 125.598 137.088C125.625 137.105 125.651 137.122 125.673 137.139C125.698 137.154 125.72 137.172 125.74 137.19C125.757 137.205 125.773 137.22 125.787 137.235C125.795 137.242 125.802 137.251 125.808 137.259C125.819 137.269 125.825 137.279 125.832 137.289C125.835 137.294 125.839 137.297 125.84 137.301C125.854 137.317 125.862 137.334 125.87 137.351C125.889 137.391 125.899 137.431 125.899 137.473L125.865 127.026C125.86 125.51 124.734 124.26 123.273 124.064L123.273 124.066Z" fill="white"/>
<path d="M124.187 136.682C124.139 139.338 124.027 141.909 123.923 143.875L125.917 143.868L125.897 137.476C125.897 137.434 125.887 137.394 125.869 137.354C125.86 137.338 125.852 137.321 125.839 137.304C125.837 137.301 125.834 137.297 125.83 137.292C125.824 137.281 125.815 137.272 125.807 137.262C125.802 137.254 125.793 137.246 125.785 137.239C125.772 137.224 125.755 137.209 125.738 137.194C125.718 137.175 125.697 137.159 125.671 137.142C125.65 137.125 125.623 137.109 125.596 137.092C125.454 137.007 125.265 136.928 125.04 136.861C125.008 136.851 124.976 136.843 124.943 136.834C124.898 136.821 124.852 136.811 124.804 136.799C124.664 136.766 124.511 136.734 124.349 136.709C124.306 136.702 124.262 136.696 124.216 136.687C124.207 136.687 124.197 136.686 124.186 136.684L124.187 136.682Z" fill="white"/>
<path d="M119.176 196.702C119.181 198.058 119.484 199.343 120.025 200.495C121.466 203.561 124.587 205.678 128.199 205.668L142.512 205.625C147.479 205.61 151.493 201.571 151.478 196.602C151.474 195.245 151.17 193.961 150.629 192.808C149.188 189.742 146.069 187.624 142.458 187.635L128.144 187.678C123.178 187.695 119.163 191.733 119.178 196.699L119.176 196.702Z" fill="white"/>
<path d="M151.17 46.7541C154.109 50.5099 158.259 59.1465 158.027 77.869C157.9 88.0902 157.741 95.2074 157.585 100.138L161.694 100.127L161.685 97.4556L160.699 97.4556C162.728 97.3954 164.35 95.7273 164.343 93.6864L164.285 74.5042C164.278 72.4282 162.59 70.7484 160.512 70.7551L161.604 70.7517L161.562 57.3998C161.557 55.7902 161.196 54.2641 160.552 52.8951C158.884 49.3465 155.319 46.866 151.168 46.7557L151.17 46.7541Z" fill="white"/>
<path d="M118.803 46.8477C112.904 46.8661 108.137 51.6633 108.156 57.562L108.196 70.9139L109.182 70.9139C107.154 70.9741 105.533 72.6406 105.538 74.6831L105.597 93.8653C105.602 95.9312 107.271 97.601 109.329 97.6144L108.278 97.6178L108.286 100.289L118.096 100.259L157.587 100.138C157.741 95.2075 157.901 88.0902 158.028 77.869C158.26 59.1466 154.11 50.5083 151.172 46.7541C151.065 46.7507 150.958 46.7491 150.849 46.7507L145.509 46.7658C145.505 45.5573 145.234 44.414 144.753 43.3877C143.795 41.3501 142.005 39.7839 139.822 39.1237C139.078 38.898 138.289 38.7777 137.474 38.781L136.633 38.781L136.633 38.7844L134.803 38.7894L132.974 38.7944L132.133 38.7977C127.709 38.8094 124.132 42.4082 124.147 46.8326L118.805 46.8493L118.803 46.8477Z" fill="#EDEDED"/>
<path d="M105.537 74.683L105.595 93.8651C105.6 95.931 107.27 97.6009 109.328 97.6142L118.111 97.5875C118.143 91.1338 118.15 82.1646 118.071 70.8853L109.18 70.9137C107.153 70.9756 105.532 72.6421 105.537 74.6846L105.537 74.683Z" fill="#C9C9C9"/>
<path d="M108.278 97.6159L108.286 100.287L118.096 100.257C118.103 99.4195 118.108 98.5302 118.113 97.5858L109.329 97.6126L108.278 97.6159Z" fill="#C9C9C9"/>
<path d="M108.154 57.5618L119.818 57.5267C121.436 53.0839 124.023 49.5788 126.968 46.8225L124.144 46.8308L118.802 46.8475C112.903 46.8659 108.136 51.6631 108.154 57.5618Z" fill="#C9C9C9"/>
<path d="M124.144 46.8308L126.969 46.8225C131.111 42.9463 135.963 40.5527 139.821 39.1236C139.077 38.8979 138.288 38.7775 137.472 38.7809L136.631 38.7809L136.631 38.7842L134.801 38.7893L132.973 38.7943L132.132 38.7976C127.707 38.8093 124.13 42.4081 124.145 46.8325L124.144 46.8308Z" fill="#C9C9C9"/>
<path d="M108.154 57.5618L108.194 70.9137L109.18 70.9137C109.216 70.9104 109.251 70.9103 109.286 70.9103L118.07 70.8836C118.065 70.0529 118.058 69.2104 118.051 68.3563C118.019 64.2377 118.678 60.6507 119.816 57.525L108.153 57.5601L108.154 57.5618Z" fill="#C9C9C9"/>
<path d="M124.172 55.5093L145.536 55.4441C145.536 55.4441 145.526 52.7748 134.845 52.8065C124.162 52.8383 124.172 55.5093 124.172 55.5093Z" fill="white"/>
<path d="M126.83 51.4961L142.851 51.4476C142.851 51.4476 142.843 48.7783 134.833 48.8017C126.82 48.8267 126.83 51.4961 126.83 51.4961Z" fill="white"/>
<path d="M163.217 175.555L107.382 175.725L107.42 212.575C107.429 215.455 109.771 217.782 112.649 217.772L158.057 217.633C160.937 217.624 163.263 215.283 163.253 212.404L163.215 175.555L163.217 175.555Z" stroke="#A5B4FC" stroke-width="0.732116" stroke-linecap="round" stroke-linejoin="round"/>
<path d="M163.217 175.555L107.382 175.725L108.972 173.759L161.615 173.599L163.217 175.555Z" stroke="#A5B4FC" stroke-width="0.732116" stroke-linecap="round" stroke-linejoin="round"/>
<path d="M161.615 173.599L161.532 146.45L154.638 144.389C153.301 143.99 151.912 143.788 150.515 143.793L119.886 143.886C118.491 143.891 117.102 144.1 115.768 144.508L108.888 146.611L108.971 173.759L161.615 173.599Z" stroke="#A5B4FC" stroke-width="0.732116" stroke-linecap="round" stroke-linejoin="round"/>
<path d="M150.465 137.401L150.433 126.954C150.428 125.298 149.081 123.959 147.424 123.964C145.768 123.969 144.429 125.316 144.434 126.973L144.466 137.419C144.466 136.931 145.806 136.53 147.463 136.525C149.119 136.52 150.463 136.913 150.465 137.401Z" stroke="#A5B4FC" stroke-width="0.732116" stroke-linecap="round" stroke-linejoin="round"/>
<path d="M150.485 143.793L150.465 137.401C150.465 136.913 149.119 136.52 147.463 136.525C145.806 136.53 144.464 136.931 144.466 137.419L144.486 143.811L150.485 143.793Z" stroke="#A5B4FC" stroke-width="0.732116" stroke-linecap="round" stroke-linejoin="round"/>
<path d="M125.897 137.476L125.865 127.029C125.86 125.373 124.513 124.034 122.857 124.039C121.2 124.044 119.861 125.391 119.866 127.048L119.898 137.495C119.898 137.007 121.239 136.605 122.895 136.6C124.552 136.595 125.895 136.988 125.897 137.476Z" stroke="#A5B4FC" stroke-width="0.732116" stroke-linecap="round" stroke-linejoin="round"/>
<path d="M125.917 143.868L125.897 137.476C125.897 136.988 124.551 136.595 122.895 136.6C121.239 136.605 119.896 137.006 119.898 137.495L119.918 143.886L125.917 143.868Z" stroke="#A5B4FC" stroke-width="0.732116" stroke-linecap="round" stroke-linejoin="round"/>
<path d="M142.455 187.638L128.142 187.681C123.174 187.696 119.161 191.736 119.176 196.702C119.191 201.67 123.231 205.683 128.197 205.668L142.51 205.625C147.478 205.61 151.491 201.57 151.476 196.604C151.461 191.636 147.421 187.623 142.455 187.638Z" stroke="#A5B4FC" stroke-width="0.732116" stroke-linecap="round" stroke-linejoin="round"/>
<path d="M127.353 217.715L143.367 217.665L143.409 230.878C143.414 232.429 142.159 233.691 140.608 233.696L130.215 233.729C128.663 233.734 127.401 232.479 127.396 230.928L127.355 217.715L127.353 217.715Z" stroke="#A5B4FC" stroke-width="0.732116" stroke-linecap="round" stroke-linejoin="round"/>
<path d="M137.41 233.707L133.408 233.72L133.433 241.731L137.435 241.719L137.41 233.707Z" stroke="#A5B4FC" stroke-width="0.732116" stroke-linecap="round" stroke-linejoin="round"/>
<path d="M133.594 241.702C133.594 241.734 133.581 242.605 133.626 252.427C133.636 254.488 133.573 256.639 133.504 258.917C133.252 267.442 132.966 277.105 136.339 287.53C140.244 299.598 148.324 310.251 161.045 320.097C181.25 335.736 192.58 352.459 192.948 367.183C193.168 375.999 189.411 383.785 181.782 390.327" stroke="#A5B4FC" stroke-width="0.732116" stroke-linecap="round" stroke-linejoin="round"/>
<path d="M186.203 391.246C189.474 388.071 192.005 384.602 193.742 380.905C195.764 376.597 196.729 371.951 196.607 367.093C196.461 361.303 194.79 355.262 191.697 349.133C186.327 338.486 176.671 327.566 163.285 317.206C136.065 296.136 136.673 275.56 137.163 259.026C137.232 256.716 137.295 254.535 137.287 252.41C137.242 242.804 137.253 241.804 137.253 241.766" stroke="#A5B4FC" stroke-width="0.732116" stroke-linecap="round" stroke-linejoin="round"/>
<path d="M136.63 38.7809L136.565 17.4894C136.511 0.445128 136.427 -25.3143 148.128 -32.0806C154.214 -35.5991 160.803 -33.5247 167.78 -31.3284C172.54 -29.8291 177.461 -28.2796 182.043 -28.8562C187.36 -29.5248 191.457 -32.9347 194.574 -39.278" stroke="#A5B4FC" stroke-width="0.732116" stroke-miterlimit="10"/>
<path d="M134.799 38.7859L132.971 38.791L132.906 17.4994C132.877 8.60372 132.842 -2.4683 134.415 -12.28C136.329 -24.2195 140.215 -31.7329 146.296 -35.2497C153.778 -39.5755 161.801 -37.0499 168.878 -34.8201C177.6 -32.0739 184.623 -29.8625 190.053 -38.6445" stroke="#A5B4FC" stroke-width="0.732116" stroke-miterlimit="10"/>
<path d="M109.18 70.9121L118.071 70.8837L109.287 70.9104C109.252 70.9104 109.217 70.9104 109.182 70.9104L109.18 70.9121Z" stroke="#A5B4FC" stroke-width="0.732116" stroke-linecap="round" stroke-linejoin="round"/>
<path d="M124.172 55.5092L145.536 55.4441C145.536 55.4441 145.526 52.7747 134.845 52.8064C124.162 52.8382 124.172 55.5092 124.172 55.5092Z" stroke="#A5B4FC" stroke-width="0.732116" stroke-linecap="round" stroke-linejoin="round"/>
<path d="M126.83 51.496L142.851 51.4475C142.851 51.4475 142.843 48.7781 134.833 48.8015C126.82 48.8266 126.83 51.496 126.83 51.496Z" stroke="#A5B4FC" stroke-width="0.732116" stroke-linecap="round" stroke-linejoin="round"/>
<path d="M105.537 74.683L105.595 93.8651C105.6 95.9311 107.27 97.6009 109.328 97.6143L118.111 97.5875L160.699 97.4572C162.729 97.3953 164.35 95.7272 164.343 93.6846L164.285 74.5025C164.278 72.4265 162.59 70.7466 160.512 70.7533L118.071 70.8837L109.18 70.9121C107.153 70.974 105.532 72.6404 105.537 74.683Z" stroke="#A5B4FC" stroke-width="0.732116" stroke-linecap="round" stroke-linejoin="round"/>
<path d="M108.278 97.616L108.286 100.287L118.094 100.259L161.694 100.125L161.685 97.4539L160.699 97.4555L118.111 97.5876L109.327 97.6127L108.278 97.616Z" stroke="#A5B4FC" stroke-width="0.732116" stroke-linecap="round" stroke-linejoin="round"/>
<path d="M118.803 46.8476L124.145 46.8309L126.97 46.8225L145.509 46.7657L150.849 46.7507C155.138 46.7373 158.844 49.2529 160.556 52.8934C161.199 54.2624 161.56 55.7884 161.565 57.3981L119.821 57.5268L108.157 57.5619C108.139 51.6632 112.908 46.866 118.805 46.8476L118.803 46.8476Z" stroke="#A5B4FC" stroke-width="0.732116" stroke-linecap="round" stroke-linejoin="round"/>
<path d="M124.144 46.8309L126.969 46.8225L145.507 46.7657C145.504 45.5572 145.233 44.4139 144.752 43.3876C143.794 41.35 142.004 39.7839 139.821 39.1236C139.077 38.898 138.288 38.7776 137.472 38.7809L136.631 38.7809L136.631 38.7843L134.801 38.7893L132.973 38.7943L132.132 38.7977C127.707 38.8094 124.13 42.4081 124.145 46.8326L124.144 46.8309Z" stroke="#A5B4FC" stroke-width="0.732116" stroke-linecap="round" stroke-linejoin="round"/>
<path d="M108.154 57.5618L108.194 70.9138L109.18 70.9138C109.216 70.9104 109.251 70.9104 109.286 70.9104L118.07 70.8837L160.511 70.7533L161.602 70.75L161.56 57.398L119.816 57.5267L108.153 57.5618L108.154 57.5618Z" stroke="#A5B4FC" stroke-width="0.732116" stroke-linecap="round" stroke-linejoin="round"/>
<path d="M109.18 70.9121L118.071 70.8837L109.287 70.9104C109.252 70.9104 109.217 70.9104 109.182 70.9104L109.18 70.9121Z" stroke="#A5B4FC" stroke-width="0.732116" stroke-linecap="round" stroke-linejoin="round"/>
<path d="M208.158 118.099L192.55 123.009L193.706 115.783L178.098 120.694" stroke="#A5B4FC" stroke-width="0.877536" stroke-miterlimit="10" stroke-linecap="round"/>
<path d="M200.085 155.339L184.112 151.788L188.727 146.109L172.754 142.558" stroke="#A5B4FC" stroke-width="0.877536" stroke-miterlimit="10" stroke-linecap="round"/>
<path d="M72.73 161.497L83.792 149.441L86.4028 156.277L97.4648 144.219" stroke="#A5B4FC" stroke-width="0.877536" stroke-miterlimit="10" stroke-linecap="round"/>
<path d="M61.1014 125.209L76.7099 120.298L75.5515 127.524L91.1617 122.613" stroke="#A5B4FC" stroke-width="0.877536" stroke-miterlimit="10" stroke-linecap="round"/>
<path d="M69.1748 87.9681L85.1476 91.5201L80.5326 97.1998L96.5055 100.75" stroke="#A5B4FC" stroke-width="0.877536" stroke-miterlimit="10" stroke-linecap="round"/>
<path d="M196.53 81.8104L185.468 93.8685L182.857 87.0321L171.795 99.0887" stroke="#A5B4FC" stroke-width="0.877536" stroke-miterlimit="10" stroke-linecap="round"/>
</g>
</g>
<defs>
<filter id="filter0_d_1937_4154" x="0" y="-3.05176e-05" width="276" height="276" filterUnits="userSpaceOnUse" color-interpolation-filters="sRGB">
<feFlood flood-opacity="0" result="BackgroundImageFix"/>
<feColorMatrix in="SourceAlpha" type="matrix" values="0 0 0 0 0 0 0 0 0 0 0 0 0 0 0 0 0 0 127 0" result="hardAlpha"/>
<feOffset dx="4" dy="4"/>
<feComposite in2="hardAlpha" operator="out"/>
<feColorMatrix type="matrix" values="0 0 0 0 0 0 0 0 0 0 0 0 0 0 0 0 0 0 0.07 0"/>
<feBlend mode="normal" in2="BackgroundImageFix" result="effect1_dropShadow_1937_4154"/>
<feBlend mode="normal" in="SourceGraphic" in2="effect1_dropShadow_1937_4154" result="shape"/>
</filter>
</defs>
</svg>
