<svg width="171" height="35" viewBox="0 0 171 35" fill="none" xmlns="http://www.w3.org/2000/svg">
<g clip-path="url(#clip0_1564_3550)">
<path d="M30 5.15234H0V28.6081H30V5.15234Z" fill="#16133F"/>
<path d="M29.9996 3.02441H22.0654V5.41788H29.9996V3.02441Z" fill="#16133F"/>
<path d="M7.94125 3.02441H0V5.41788H7.94125V3.02441Z" fill="#991C52"/>
<path d="M15.0726 3.02441H7.80469V5.41788H15.0726V3.02441Z" fill="#512668"/>
<path d="M22.135 3.02441H14.9355V5.41788H22.135V3.02441Z" fill="#2D2F75"/>
<path d="M29.9998 0H21.9287V3.06554H29.9998V0Z" fill="#00916B"/>
<path d="M7.94125 0.0234375H0V3.06622H7.94125V0.0234375Z" fill="#FAB01B"/>
<path d="M15.0726 0.0332031H7.80469V3.06536H15.0726V0.0332031Z" fill="#CF7729"/>
<path d="M22.135 0H14.9355V3.06554H22.135V0Z" fill="#ED3B25"/>
<path d="M30 29.1211H0V34.3505H30V29.1211Z" fill="#000101"/>
<path d="M2.50293 21.418H4.62083C5.89807 21.418 6.73874 22.0951 6.73874 23.2076V23.2238C6.73874 24.441 5.72009 25.0701 4.51588 25.0701H3.1418V27.0616H2.50344V21.418H2.50293ZM4.53971 24.4896C5.47722 24.4896 6.09175 23.9899 6.09175 23.2481V23.2319C6.09175 22.4258 5.48534 22.0066 4.57216 22.0066H3.14129V24.4896H4.53971Z" fill="#FAB01B"/>
<path d="M9.52004 21.418H10.1665L12.2276 24.4977L14.2887 21.418H14.9352V27.0616H14.2969V22.4906L12.2357 25.5136H12.2033L10.1422 22.4986V27.0616H9.51953V21.418H9.52004Z" fill="#FAB01B"/>
<path d="M17.7407 24.2559V24.2397C17.7407 22.6917 18.8806 21.3213 20.5781 21.3213C21.5319 21.3213 22.1221 21.5954 22.6879 22.0712L22.2757 22.5552C21.8391 22.1764 21.3544 21.9104 20.5538 21.9104C19.3009 21.9104 18.4034 22.9663 18.4034 24.224V24.2402C18.4034 25.5863 19.2685 26.5861 20.6425 26.5861C21.289 26.5861 21.8873 26.3363 22.2752 26.0217V24.6189H20.5533V24.0465H22.8892V26.2958C22.3639 26.7636 21.5714 27.1586 20.6177 27.1586C18.8395 27.1586 17.7402 25.8685 17.7402 24.2564L17.7407 24.2559Z" fill="#FAB01B"/>
<path d="M2.49707 31.5588V31.5532C2.49707 31.0187 2.89053 30.5459 3.47667 30.5459C3.80574 30.5459 4.00957 30.6405 4.20478 30.8048L4.0623 30.9717C3.91171 30.8407 3.74439 30.7492 3.46805 30.7492C3.03555 30.7492 2.72574 31.1138 2.72574 31.5482V31.5538C2.72574 32.0185 3.02439 32.3639 3.49898 32.3639C3.72208 32.3639 3.92895 32.2774 4.06281 32.1692V31.6847H3.46856V31.487H4.27526V32.2638C4.09374 32.4251 3.82044 32.5616 3.49087 32.5616C2.87684 32.5616 2.49758 32.1161 2.49758 31.5598L2.49707 31.5588Z" fill="white"/>
<path d="M7.28273 30.5796H8.1229C8.36273 30.5796 8.5554 30.6519 8.67811 30.7743C8.77292 30.8689 8.8287 31.0054 8.8287 31.1581V31.1637C8.8287 31.4863 8.6056 31.676 8.29833 31.7316L8.89816 32.5276H8.6274L8.06104 31.7705H7.50279V32.5276H7.28223V30.5791L7.28273 30.5796ZM8.10312 31.5733C8.39619 31.5733 8.6056 31.4231 8.6056 31.1723V31.1667C8.6056 30.9275 8.42154 30.7829 8.10617 30.7829H7.5033V31.5733H8.10312V31.5733Z" fill="white"/>
<path d="M11.7256 31.5588V31.5532C11.7256 31.0162 12.1302 30.5459 12.7245 30.5459C13.3187 30.5459 13.7177 31.0106 13.7177 31.5477V31.5532C13.7177 32.0903 13.3131 32.5606 12.7189 32.5606C12.1246 32.5606 11.7256 32.0959 11.7256 31.5588V31.5588ZM13.4896 31.5588V31.5532C13.4896 31.1108 13.1661 30.7487 12.7194 30.7487C12.2727 30.7487 11.9548 31.1047 11.9548 31.5477V31.5532C11.9548 31.9957 12.2783 32.3578 12.725 32.3578C13.1717 32.3578 13.4896 32.0018 13.4896 31.5588Z" fill="white"/>
<path d="M16.665 31.7119V30.5791H16.8856V31.6982C16.8856 32.1184 17.1087 32.3551 17.4829 32.3551C17.8571 32.3551 18.0716 32.1382 18.0716 31.7124V30.5796H18.2921V31.6957C18.2921 32.2636 17.9656 32.5584 17.4773 32.5584C16.989 32.5584 16.665 32.2636 16.665 31.7124V31.7119Z" fill="white"/>
<path d="M21.3247 30.5796H22.0559C22.497 30.5796 22.787 30.8132 22.787 31.1976V31.2031C22.787 31.6234 22.4356 31.8403 22.0194 31.8403H21.5448V32.5276H21.3242V30.5791L21.3247 30.5796ZM22.028 31.6401C22.3515 31.6401 22.5639 31.4676 22.5639 31.2112V31.2057C22.5639 30.9275 22.3545 30.7824 22.0391 30.7824H21.5453V31.6395H22.028V31.6401Z" fill="white"/>
</g>
<path d="M42.3008 24V11.2734H46.8359C49.7979 11.2734 51.248 13.0488 51.248 15.4043C51.248 17.751 49.7891 19.5352 46.8359 19.5352H44.2344V24H42.3008ZM44.2344 17.8828H46.6426C48.5146 17.8916 49.2969 16.8369 49.2969 15.4043C49.2969 13.9629 48.5146 12.9346 46.6426 12.9258H44.2344V17.8828ZM52.9271 11.2734H55.2826L59.308 21.1348H59.4662L63.4916 11.2734H65.847V24H64.0013V14.8066H63.8783L60.1517 23.9824H58.6224L54.8783 14.7891H54.7728V24H52.9271V11.2734ZM76.6843 15.2988C76.2097 13.7959 75.0583 12.8643 73.3796 12.873C71.2351 12.8643 69.5915 14.5518 69.5827 17.6367C69.5915 20.7129 71.2175 22.4092 73.4675 22.4004C75.4978 22.4092 76.8425 21.1172 76.8777 19.0781H73.7488V17.4785H78.7585V18.9199C78.7585 22.1455 76.5437 24.1758 73.4499 24.1758C70.0046 24.1758 67.6667 21.6709 67.6667 17.6367C67.6667 13.5762 70.0749 11.0977 73.362 11.0977C76.113 11.0977 78.24 12.8115 78.6706 15.2988H76.6843ZM93.2612 15.2988C92.7866 13.7959 91.6352 12.8643 89.9565 12.873C87.812 12.8643 86.1684 14.5518 86.1596 17.6367C86.1684 20.7129 87.7944 22.4092 90.0444 22.4004C92.0746 22.4092 93.4194 21.1172 93.4545 19.0781H90.3256V17.4785H95.3354V18.9199C95.3354 22.1455 93.1205 24.1758 90.0268 24.1758C86.5815 24.1758 84.2436 21.6709 84.2436 17.6367C84.2436 13.5762 86.6518 11.0977 89.9389 11.0977C92.6899 11.0977 94.8168 12.8115 95.2475 15.2988H93.2612ZM97.0496 24V14.4551H98.8602V15.9668H98.9656C99.3172 14.9473 100.275 14.3057 101.391 14.3145C101.62 14.3057 101.989 14.332 102.182 14.3496V16.1426C102.024 16.1074 101.585 16.0283 101.198 16.0371C99.8973 16.0283 98.9305 16.9336 98.9305 18.1816V24H97.0496ZM106.955 24.1934C104.248 24.1934 102.482 22.2246 102.49 19.2715C102.482 16.3008 104.248 14.332 106.955 14.332C109.645 14.332 111.403 16.3008 111.403 19.2715C111.403 22.2246 109.645 24.1934 106.955 24.1934ZM104.371 19.2715C104.371 21.0908 105.206 22.6289 106.955 22.6289C108.678 22.6289 109.504 21.0908 109.504 19.2715C109.504 17.4434 108.678 15.8877 106.955 15.8789C105.206 15.8877 104.371 17.4434 104.371 19.2715ZM118.953 20.0273V14.4551H120.816V24H118.988V22.3477H118.882C118.443 23.3672 117.467 24.123 116.035 24.123C114.189 24.123 112.888 22.8838 112.888 20.5195V14.4551H114.769V20.291C114.769 21.5918 115.56 22.418 116.703 22.418C117.749 22.418 118.953 21.6533 118.953 20.0273ZM122.741 27.5859V14.4551H124.569V16.002H124.727C125.061 15.4043 125.703 14.332 127.47 14.332C129.781 14.332 131.477 16.1426 131.477 19.2539C131.477 22.3301 129.799 24.1846 127.487 24.1934C125.756 24.1846 125.07 23.1299 124.727 22.5059H124.622V27.5859H122.741ZM124.587 19.2188C124.587 21.2227 125.466 22.585 127.065 22.5938C128.718 22.585 129.579 21.1348 129.579 19.2188C129.579 17.3379 128.744 15.9229 127.065 15.9316C125.448 15.9229 124.587 17.2324 124.587 19.2188ZM134.739 24L131.944 14.4551H133.877L135.74 21.4512H135.846L137.709 14.4551H139.643L141.489 21.416H141.594L143.44 14.4551H145.373L142.578 24H140.662L138.729 17.127H138.588L136.672 24H134.739ZM146.121 21.3105C146.112 19.1309 147.966 18.5684 149.689 18.4453C150.322 18.4102 151.754 18.3311 152.194 18.3135L152.185 17.5488C152.194 16.4678 151.526 15.8438 150.252 15.8438C149.144 15.8438 148.476 16.3535 148.283 17.0566H146.42C146.587 15.4746 148.063 14.332 150.322 14.332C151.842 14.332 154.057 14.8857 154.066 17.6543V24H152.238V22.6992H152.168C151.798 23.4111 150.92 24.2109 149.338 24.2109C147.527 24.2109 146.112 23.1738 146.121 21.3105ZM147.949 21.3281C147.949 22.2422 148.705 22.708 149.759 22.7168C151.289 22.708 152.203 21.6885 152.203 20.5547L152.194 19.6846C151.763 19.7109 150.401 19.8076 149.953 19.834C148.722 19.9219 147.949 20.3877 147.949 21.3281ZM155.974 24V14.4551H157.784V15.9668H157.89C158.241 14.9473 159.199 14.3057 160.315 14.3145C160.544 14.3057 160.913 14.332 161.106 14.3496V16.1426C160.948 16.1074 160.509 16.0283 160.122 16.0371C158.821 16.0283 157.854 16.9336 157.854 18.1816V24H155.974ZM165.95 24.1934C163.137 24.1934 161.406 22.251 161.414 19.2891C161.406 16.3535 163.163 14.332 165.826 14.332C167.997 14.332 170.063 15.6768 170.063 19.1309V19.7988H163.278C163.33 21.6182 164.403 22.6465 165.967 22.6465C167.031 22.6465 167.725 22.1895 168.041 21.6094H169.94C169.518 23.1562 168.05 24.1934 165.95 24.1934ZM163.286 18.3926H168.217C168.217 16.9424 167.277 15.8701 165.844 15.8789C164.341 15.8701 163.366 17.0479 163.286 18.3926Z" fill="black"/>
<defs>
<clipPath id="clip0_1564_3550">
<rect width="30" height="34.35" fill="white"/>
</clipPath>
</defs>
</svg>
