<svg width="171" height="32" viewBox="0 0 171 32" fill="none" xmlns="http://www.w3.org/2000/svg">
<g clip-path="url(#clip0_539_3840)">
<path d="M8.24676 0H0V3.16165H8.24676V0Z" fill="#FAB01B"/>
<path d="M15.6604 0H7.50098V3.16165H15.6604V0Z" fill="#CF7729"/>
<path d="M22.9971 0H14.999V3.16165H22.9971V0Z" fill="#ED3B25"/>
<path d="M29.9997 0H22.499V3.16165H29.9997V0Z" fill="#00916B"/>
<path d="M8.24676 2.45996H0V5.78036H8.24676V2.45996Z" fill="#991C52"/>
<path d="M15.6604 2.45996H7.50098V5.78036H15.6604V2.45996Z" fill="#512668"/>
<path d="M22.9971 2.45996H14.999V5.78036H22.9971V2.45996Z" fill="#2D2F75"/>
<path d="M29.9997 2.45996H22.499V5.78036H29.9997V2.45996Z" fill="#16133F"/>
<path d="M30 4.91797H0V31.7351H30V4.91797Z" fill="#16133F"/>
<path d="M4.70703 22.2188H6.91622C8.24703 22.2188 9.12541 22.9278 9.12541 24.0893V24.1052C9.12541 25.3778 8.06447 26.0365 6.80775 26.0365H5.37376V28.1187H4.70703V22.2188ZM6.83156 25.4307C7.81048 25.4307 8.45075 24.9068 8.45075 24.1316V24.1157C8.45075 23.2718 7.81842 22.8352 6.86595 22.8352H5.37376V25.4307H6.83156Z" fill="#FAB01B"/>
<path d="M11.75 22.2188H12.4247L14.573 25.4386L16.7213 22.2188H17.396V28.1187H16.7293V23.3405L14.5809 26.5022H14.5465L12.3982 23.3485V28.1187H11.75V22.2188Z" fill="#FAB01B"/>
<path d="M19.9219 25.1846V25.1687C19.9219 23.5495 21.1098 22.1182 22.8798 22.1182C23.8746 22.1182 24.4884 22.4039 25.0811 22.9013L24.6524 23.4066C24.1974 23.0098 23.692 22.732 22.856 22.732C21.549 22.732 20.6151 23.8352 20.6151 25.1502V25.1661C20.6151 26.5736 21.5173 27.6186 22.9512 27.6186C23.6259 27.6186 24.2503 27.3567 24.6551 27.0287V25.5629H22.8586V24.965H25.2954V27.317C24.7477 27.8065 23.9222 28.2192 22.9274 28.2192C21.0728 28.2192 19.9272 26.8699 19.9272 25.1846H19.9219Z" fill="#FAB01B"/>
</g>
<path d="M42.3008 22.3682V9.6416H46.8359C49.7979 9.6416 51.248 11.417 51.248 13.7725C51.248 16.1191 49.7891 17.9033 46.8359 17.9033H44.2344V22.3682H42.3008ZM44.2344 16.251H46.6426C48.5146 16.2598 49.2969 15.2051 49.2969 13.7725C49.2969 12.3311 48.5146 11.3027 46.6426 11.2939H44.2344V16.251ZM52.9271 9.6416H55.2826L59.308 19.5029H59.4662L63.4916 9.6416H65.847V22.3682H64.0013V13.1748H63.8783L60.1517 22.3506H58.6224L54.8783 13.1572H54.7728V22.3682H52.9271V9.6416ZM76.6843 13.667C76.2097 12.1641 75.0583 11.2324 73.3796 11.2412C71.2351 11.2324 69.5915 12.9199 69.5827 16.0049C69.5915 19.0811 71.2175 20.7773 73.4675 20.7686C75.4978 20.7773 76.8425 19.4854 76.8777 17.4463H73.7488V15.8467H78.7585V17.2881C78.7585 20.5137 76.5437 22.5439 73.4499 22.5439C70.0046 22.5439 67.6667 20.0391 67.6667 16.0049C67.6667 11.9443 70.0749 9.46582 73.362 9.46582C76.113 9.46582 78.24 11.1797 78.6706 13.667H76.6843ZM93.2612 13.667C92.7866 12.1641 91.6352 11.2324 89.9565 11.2412C87.812 11.2324 86.1684 12.9199 86.1596 16.0049C86.1684 19.0811 87.7944 20.7773 90.0444 20.7686C92.0746 20.7773 93.4194 19.4854 93.4545 17.4463H90.3256V15.8467H95.3354V17.2881C95.3354 20.5137 93.1205 22.5439 90.0268 22.5439C86.5815 22.5439 84.2436 20.0391 84.2436 16.0049C84.2436 11.9443 86.6518 9.46582 89.9389 9.46582C92.6899 9.46582 94.8168 11.1797 95.2475 13.667H93.2612ZM97.0496 22.3682V12.8232H98.8602V14.335H98.9656C99.3172 13.3154 100.275 12.6738 101.391 12.6826C101.62 12.6738 101.989 12.7002 102.182 12.7178V14.5107C102.024 14.4756 101.585 14.3965 101.198 14.4053C99.8973 14.3965 98.9305 15.3018 98.9305 16.5498V22.3682H97.0496ZM106.955 22.5615C104.248 22.5615 102.482 20.5928 102.49 17.6396C102.482 14.6689 104.248 12.7002 106.955 12.7002C109.645 12.7002 111.403 14.6689 111.403 17.6396C111.403 20.5928 109.645 22.5615 106.955 22.5615ZM104.371 17.6396C104.371 19.459 105.206 20.9971 106.955 20.9971C108.678 20.9971 109.504 19.459 109.504 17.6396C109.504 15.8115 108.678 14.2559 106.955 14.2471C105.206 14.2559 104.371 15.8115 104.371 17.6396ZM118.953 18.3955V12.8232H120.816V22.3682H118.988V20.7158H118.882C118.443 21.7354 117.467 22.4912 116.035 22.4912C114.189 22.4912 112.888 21.252 112.888 18.8877V12.8232H114.769V18.6592C114.769 19.96 115.56 20.7861 116.703 20.7861C117.749 20.7861 118.953 20.0215 118.953 18.3955ZM122.741 25.9541V12.8232H124.569V14.3701H124.727C125.061 13.7725 125.703 12.7002 127.47 12.7002C129.781 12.7002 131.477 14.5107 131.477 17.6221C131.477 20.6982 129.799 22.5527 127.487 22.5615C125.756 22.5527 125.07 21.498 124.727 20.874H124.622V25.9541H122.741ZM124.587 17.5869C124.587 19.5908 125.466 20.9531 127.065 20.9619C128.718 20.9531 129.579 19.5029 129.579 17.5869C129.579 15.7061 128.744 14.291 127.065 14.2998C125.448 14.291 124.587 15.6006 124.587 17.5869ZM134.739 22.3682L131.944 12.8232H133.877L135.74 19.8193H135.846L137.709 12.8232H139.643L141.489 19.7842H141.594L143.44 12.8232H145.373L142.578 22.3682H140.662L138.729 15.4951H138.588L136.672 22.3682H134.739ZM146.121 19.6787C146.112 17.499 147.966 16.9365 149.689 16.8135C150.322 16.7783 151.754 16.6992 152.194 16.6816L152.185 15.917C152.194 14.8359 151.526 14.2119 150.252 14.2119C149.144 14.2119 148.476 14.7217 148.283 15.4248H146.42C146.587 13.8428 148.063 12.7002 150.322 12.7002C151.842 12.7002 154.057 13.2539 154.066 16.0225V22.3682H152.238V21.0674H152.168C151.798 21.7793 150.92 22.5791 149.338 22.5791C147.527 22.5791 146.112 21.542 146.121 19.6787ZM147.949 19.6963C147.949 20.6104 148.705 21.0762 149.759 21.085C151.289 21.0762 152.203 20.0566 152.203 18.9229L152.194 18.0527C151.763 18.0791 150.401 18.1758 149.953 18.2021C148.722 18.29 147.949 18.7559 147.949 19.6963ZM155.974 22.3682V12.8232H157.784V14.335H157.89C158.241 13.3154 159.199 12.6738 160.315 12.6826C160.544 12.6738 160.913 12.7002 161.106 12.7178V14.5107C160.948 14.4756 160.509 14.3965 160.122 14.4053C158.821 14.3965 157.854 15.3018 157.854 16.5498V22.3682H155.974ZM165.95 22.5615C163.137 22.5615 161.406 20.6191 161.414 17.6572C161.406 14.7217 163.163 12.7002 165.826 12.7002C167.997 12.7002 170.063 14.0449 170.063 17.499V18.167H163.278C163.33 19.9863 164.403 21.0146 165.967 21.0146C167.031 21.0146 167.725 20.5576 168.041 19.9775H169.94C169.518 21.5244 168.05 22.5615 165.95 22.5615ZM163.286 16.7607H168.217C168.217 15.3105 167.277 14.2383 165.844 14.2471C164.341 14.2383 163.366 15.416 163.286 16.7607Z" fill="black"/>
<defs>
<clipPath id="clip0_539_3840">
<rect width="30" height="31.7356" fill="white"/>
</clipPath>
</defs>
</svg>
