<svg width="128" height="32" viewBox="0 0 128 32" fill="none" xmlns="http://www.w3.org/2000/svg">
<path d="M41.3008 23.9546V11.228H45.8359C48.7979 11.228 50.248 13.0034 50.248 15.3589C50.248 17.7056 48.7891 19.4897 45.8359 19.4897H43.2344V23.9546H41.3008ZM43.2344 17.8374H45.6426C47.5146 17.8462 48.2969 16.7915 48.2969 15.3589C48.2969 13.9175 47.5146 12.8892 45.6426 12.8804H43.2344V17.8374ZM51.7471 11.228H54.1026L58.128 21.0894H58.2862L62.3116 11.228H64.667V23.9546H62.8213V14.7612H62.6983L58.9717 23.937H57.4424L53.6983 14.7437H53.5928V23.9546H51.7471V11.228ZM75.3243 15.2534C74.8497 13.7505 73.6983 12.8188 72.0196 12.8276C69.8751 12.8188 68.2315 14.5063 68.2227 17.5913C68.2315 20.6675 69.8575 22.3638 72.1075 22.355C74.1378 22.3638 75.4825 21.0718 75.5177 19.0327H72.3888V17.4331H77.3985V18.8745C77.3985 22.1001 75.1837 24.1304 72.0899 24.1304C68.6446 24.1304 66.3067 21.6255 66.3067 17.5913C66.3067 13.5308 68.7149 11.0522 72.002 11.0522C74.753 11.0522 76.88 12.7661 77.3106 15.2534H75.3243ZM82.9455 23.9546V11.228H87.4806C90.4425 11.228 91.8927 13.0034 91.8927 15.3589C91.8927 17.7056 90.4338 19.4897 87.4806 19.4897H84.8791V23.9546H82.9455ZM84.8791 17.8374H87.2873C89.1593 17.8462 89.9416 16.7915 89.9416 15.3589C89.9416 13.9175 89.1593 12.8892 87.2873 12.8804H84.8791V17.8374ZM97.1535 24.1479C94.4465 24.1479 92.6799 22.1792 92.6887 19.2261C92.6799 16.2554 94.4465 14.2866 97.1535 14.2866C99.843 14.2866 101.601 16.2554 101.601 19.2261C101.601 22.1792 99.843 24.1479 97.1535 24.1479ZM94.5695 19.2261C94.5695 21.0454 95.4045 22.5835 97.1535 22.5835C98.8762 22.5835 99.7023 21.0454 99.7023 19.2261C99.7023 17.3979 98.8762 15.8423 97.1535 15.8335C95.4045 15.8423 94.5695 17.3979 94.5695 19.2261ZM102.906 23.9546V14.4097H104.717V15.9214H104.822C105.174 14.9019 106.132 14.2603 107.248 14.269C107.477 14.2603 107.846 14.2866 108.039 14.3042V16.0972C107.881 16.062 107.442 15.9829 107.055 15.9917C105.754 15.9829 104.787 16.8882 104.787 18.1362V23.9546H102.906ZM113.933 14.4097V15.9038H111.982V21.1421C111.991 22.2231 112.518 22.4165 113.124 22.4253C113.397 22.4253 113.81 22.3989 114.074 22.3726V24.0073C113.819 24.0425 113.414 24.0776 112.896 24.0776C111.428 24.0776 110.101 23.269 110.118 21.5288V15.9038H108.712V14.4097H110.118V12.1245H111.982V14.4097H113.933ZM114.782 21.2651C114.773 19.0854 116.627 18.5229 118.35 18.3999C118.983 18.3647 120.415 18.2856 120.855 18.2681L120.846 17.5034C120.855 16.4224 120.187 15.7983 118.912 15.7983C117.805 15.7983 117.137 16.3081 116.944 17.0112H115.08C115.247 15.4292 116.724 14.2866 118.983 14.2866C120.503 14.2866 122.718 14.8403 122.727 17.6089V23.9546H120.899V22.6538H120.828C120.459 23.3657 119.58 24.1655 117.998 24.1655C116.188 24.1655 114.773 23.1284 114.782 21.2651ZM116.61 21.2827C116.61 22.1968 117.366 22.6626 118.42 22.6714C119.95 22.6626 120.864 21.6431 120.864 20.5093L120.855 19.6392C120.424 19.6655 119.062 19.7622 118.614 19.7886C117.383 19.8765 116.61 20.3423 116.61 21.2827ZM126.335 11.228V23.9546H124.454V11.228H126.335Z" fill="black"/>
<g clip-path="url(#clip0_2776_6474)">
<path d="M8.24676 -0.000976562H0V3.16068H8.24676V-0.000976562Z" fill="#FAB01B"/>
<path d="M15.6601 -0.000488281H7.50061V3.16117H15.6601V-0.000488281Z" fill="#CF7729"/>
<path d="M22.9968 -0.000488281H14.9988V3.16117H22.9968V-0.000488281Z" fill="#ED3B25"/>
<path d="M30.0001 -0.000488281H22.4994V3.16117H30.0001V-0.000488281Z" fill="#00916B"/>
<path d="M8.24676 2.45996H0V5.78036H8.24676V2.45996Z" fill="#991C52"/>
<path d="M15.6601 2.45996H7.50061V5.78036H15.6601V2.45996Z" fill="#512668"/>
<path d="M22.9968 2.45996H14.9988V5.78036H22.9968V2.45996Z" fill="#2D2F75"/>
<path d="M30.0001 2.45996H22.4994V5.78036H30.0001V2.45996Z" fill="#16133F"/>
<path d="M30 4.91748H0V31.7347H30V4.91748Z" fill="#16133F"/>
<path d="M4.70654 22.2188H6.91573C8.24654 22.2188 9.12492 22.9278 9.12492 24.0893V24.1052C9.12492 25.3778 8.06398 26.0365 6.80726 26.0365H5.37327V28.1187H4.70654V22.2188ZM6.83107 25.4307C7.80999 25.4307 8.45026 24.9068 8.45026 24.1316V24.1157C8.45026 23.2718 7.81793 22.8352 6.86546 22.8352H5.37327V25.4307H6.83107Z" fill="#FAB01B"/>
<path d="M11.7495 22.2188H12.4242L14.5725 25.4386L16.7208 22.2188H17.3955V28.1187H16.7288V23.3405L14.5804 26.5022H14.5461L12.3977 23.3485V28.1187H11.7495V22.2188Z" fill="#FAB01B"/>
<path d="M19.9221 25.1846V25.1687C19.9221 23.5495 21.1101 22.1182 22.8801 22.1182C23.8748 22.1182 24.4887 22.4039 25.0813 22.9013L24.6527 23.4066C24.1976 23.0098 23.6923 22.732 22.8562 22.732C21.5492 22.732 20.6153 23.8352 20.6153 25.1502V25.1661C20.6153 26.5736 21.5175 27.6186 22.9515 27.6186C23.6261 27.6186 24.2505 27.3567 24.6553 27.0287V25.5629H22.8589V24.965H25.2956V27.317C24.7479 27.8065 23.9225 28.2192 22.9277 28.2192C21.073 28.2192 19.9274 26.8699 19.9274 25.1846H19.9221Z" fill="#FAB01B"/>
</g>
<defs>
<clipPath id="clip0_2776_6474">
<rect width="30" height="31.7356" fill="white"/>
</clipPath>
</defs>
</svg>
