<svg width="85" height="90" viewBox="0 0 85 90" fill="none" xmlns="http://www.w3.org/2000/svg">
<g clip-path="url(#clip0_3296_4657)">
<path d="M23.3658 -0.000976562H0V8.95704H23.3658V-0.000976562Z" fill="#FAB01B"/>
<path d="M44.3701 -0.000976562H21.2517V8.95704H44.3701V-0.000976562Z" fill="#CF7729"/>
<path d="M65.1578 -0.000976562H42.4966V8.95704H65.1578V-0.000976562Z" fill="#ED3B25"/>
<path d="M85.0002 -0.000976562H63.7483V8.95704H85.0002V-0.000976562Z" fill="#00916B"/>
<path d="M23.3658 6.97046H0V16.3783H23.3658V6.97046Z" fill="#991C52"/>
<path d="M44.3701 6.97046H21.2517V16.3783H44.3701V6.97046Z" fill="#512668"/>
<path d="M65.1578 6.97046H42.4966V16.3783H65.1578V6.97046Z" fill="#2D2F75"/>
<path d="M85.0002 6.97046H63.7483V16.3783H85.0002V6.97046Z" fill="#16133F"/>
<path d="M85 13.9348H0V89.9168H85V13.9348Z" fill="#16133F"/>
<path d="M13.3352 62.9517H19.5946C23.3652 62.9517 25.8539 64.9607 25.8539 68.2515V68.2965C25.8539 71.9022 22.8479 73.7688 19.2872 73.7688H15.2243V79.6683H13.3352V62.9517ZM19.3547 72.0521C22.1283 72.0521 23.9424 70.5678 23.9424 68.3714V68.3265C23.9424 65.9352 22.1508 64.6983 19.4521 64.6983H15.2243V72.0521H19.3547Z" fill="#FAB01B"/>
<path d="M33.2903 62.9517H35.2018L41.2888 72.0746L47.3757 62.9517H49.2873V79.6683H47.3982V66.1301L41.3113 75.0881H41.2138L35.1269 66.1526V79.6683H33.2903V62.9517Z" fill="#FAB01B"/>
<path d="M56.446 71.3549V71.3099C56.446 66.7222 59.8119 62.6667 64.8269 62.6667C67.6454 62.6667 69.3846 63.4763 71.0637 64.8856L69.8493 66.3174C68.56 65.193 67.1282 64.4059 64.7594 64.4059C61.0562 64.4059 58.4101 67.5318 58.4101 71.2575V71.3024C58.4101 75.2904 60.9663 78.2515 65.0293 78.2515C66.9408 78.2515 68.7099 77.5093 69.8568 76.5798V72.4269H64.7669V70.7327H71.6709V77.3969C70.1192 78.7837 67.7804 79.9531 64.9618 79.9531C59.7069 79.9531 56.461 76.13 56.461 71.3549H56.446Z" fill="#FAB01B"/>
</g>
<defs>
<clipPath id="clip0_3296_4657">
<rect width="85" height="89.9175" fill="white"/>
</clipPath>
</defs>
</svg>
