<svg width="85" height="98" viewBox="0 0 85 98" fill="none" xmlns="http://www.w3.org/2000/svg">
<g clip-path="url(#clip0_548_3597)">
<path d="M85 14.5974H0V81.0554H85V14.5974Z" fill="#16133F"/>
<path d="M85.0001 8.56958H62.52V15.3511H85.0001V8.56958Z" fill="#16133F"/>
<path d="M22.5002 8.56958H0V15.3511H22.5002V8.56958Z" fill="#991C52"/>
<path d="M42.7047 8.56958H22.1123V15.3511H42.7047V8.56958Z" fill="#512668"/>
<path d="M62.7153 8.56958H42.3169V15.3511H62.7153V8.56958Z" fill="#2D2F75"/>
<path d="M85.0001 0H62.1321V8.68569H85.0001V0Z" fill="#00916B"/>
<path d="M22.5002 0.065918H0V8.68713H22.5002V0.065918Z" fill="#FAB01B"/>
<path d="M42.7047 0.0944824H22.1123V8.68561H42.7047V0.0944824Z" fill="#CF7729"/>
<path d="M62.7153 0H42.3169V8.68569H62.7153V0Z" fill="#ED3B25"/>
<path d="M85 82.5083H0V97.325H85V82.5083Z" fill="#000101"/>
<path d="M7.09253 60.6838H13.0933C16.7121 60.6838 19.094 62.6024 19.094 65.7546V65.8004C19.094 69.2492 16.2078 71.0316 12.7959 71.0316H8.90266V76.674H7.09397V60.6838H7.09253ZM12.8634 69.3867C15.5197 69.3867 17.2609 67.9711 17.2609 65.8692V65.8233C17.2609 63.5394 15.5427 62.3516 12.9553 62.3516H8.90122V69.3867H12.8634Z" fill="#FAB01B"/>
<path d="M26.9724 60.6838H28.8041L34.6439 69.4096L40.4837 60.6838H42.3154V76.674H40.5067V63.7228L34.6669 72.2882H34.5749L28.7351 63.7458V76.674H26.9709V60.6838H26.9724Z" fill="#FAB01B"/>
<path d="M50.2641 68.7247V68.6789C50.2641 64.2931 53.4936 60.4102 58.3034 60.4102C61.0057 60.4102 62.6779 61.1867 64.2812 62.535L63.1132 63.9062C61.8763 62.833 60.5029 62.0794 58.2345 62.0794C54.6846 62.0794 52.1418 65.0711 52.1418 68.6345V68.6803C52.1418 72.4945 54.5926 75.3271 58.4859 75.3271C60.3175 75.3271 62.0127 74.6193 63.1118 73.7281V69.7535H58.233V68.1316H64.8515V74.5047C63.3632 75.8301 61.1177 76.9491 58.4155 76.9491C53.3773 76.9491 50.2627 73.294 50.2627 68.7262L50.2641 68.7247Z" fill="#FAB01B"/>
<path d="M7.07397 89.4173V89.4015C7.07397 87.887 8.18878 86.5474 9.84951 86.5474C10.7819 86.5474 11.3594 86.8153 11.9125 87.281L11.5088 87.7538C11.0821 87.3827 10.608 87.1234 9.82509 87.1234C8.59966 87.1234 7.72189 88.1564 7.72189 89.3872V89.403C7.72189 90.7197 8.56805 91.6983 9.91272 91.6983C10.5448 91.6983 11.131 91.4533 11.5102 91.1467V89.7741H9.82652V89.2138H12.1122V91.4146C11.5979 91.8717 10.8235 92.2585 9.88973 92.2585C8.15 92.2585 7.07541 90.9962 7.07541 89.4202L7.07397 89.4173Z" fill="white"/>
<path d="M20.634 86.6421H23.0145C23.694 86.6421 24.2399 86.8469 24.5876 87.1937C24.8562 87.4616 25.0142 87.8485 25.0142 88.2812V88.297C25.0142 89.2111 24.3821 89.7484 23.5115 89.906L25.2111 92.1612H24.4439L22.8392 90.0163H21.2575V92.1612H20.6326V86.6406L20.634 86.6421ZM22.9584 89.4575C23.7888 89.4575 24.3821 89.032 24.3821 88.3213V88.3055C24.3821 87.6278 23.8606 87.218 22.9671 87.218H21.2589V89.4575H22.9584V89.4575Z" fill="white"/>
<path d="M33.2217 89.4173V89.4015C33.2217 87.8799 34.3681 86.5474 36.0518 86.5474C37.7355 86.5474 38.8661 87.8641 38.8661 89.3858V89.4015C38.8661 90.9232 37.7197 92.2557 36.036 92.2557C34.3523 92.2557 33.2217 90.9389 33.2217 89.4173V89.4173ZM38.2197 89.4173V89.4015C38.2197 88.1478 37.3031 87.1219 36.0374 87.1219C34.7718 87.1219 33.871 88.1306 33.871 89.3858V89.4015C33.871 90.6552 34.7876 91.6811 36.0532 91.6811C37.3189 91.6811 38.2197 90.6724 38.2197 89.4173Z" fill="white"/>
<path d="M47.2173 89.8513V86.6418H47.8422V89.8127C47.8422 91.0033 48.4743 91.6739 49.5345 91.6739C50.5948 91.6739 51.2024 91.0592 51.2024 89.8528V86.6433H51.8274V89.8055C51.8274 91.4145 50.9022 92.2499 49.5187 92.2499C48.1353 92.2499 47.2173 91.4145 47.2173 89.8528V89.8513Z" fill="white"/>
<path d="M60.4211 86.6421H62.4927C63.7426 86.6421 64.5643 87.304 64.5643 88.3929V88.4087C64.5643 89.5994 63.5687 90.2141 62.3893 90.2141H61.0446V92.1612H60.4197V86.6406L60.4211 86.6421ZM62.4137 89.6467C63.3303 89.6467 63.9322 89.1581 63.9322 88.4316V88.4159C63.9322 87.6278 63.3389 87.2166 62.4453 87.2166H61.046V89.6452H62.4137V89.6467Z" fill="white"/>
</g>
<defs>
<clipPath id="clip0_548_3597">
<rect width="85" height="97.325" fill="white"/>
</clipPath>
</defs>
</svg>
