<svg width="24" height="24" viewBox="0 0 24 24" fill="none" xmlns="http://www.w3.org/2000/svg">
<path d="M12.8998 7.5H11.0998V11.1H7.49976V12.9H11.0998V16.5H12.8998V12.9H16.4998V11.1H12.8998V7.5ZM11.9998 3C7.03176 3 2.99976 7.032 2.99976 12C2.99976 16.968 7.03176 21 11.9998 21C16.9678 21 20.9998 16.968 20.9998 12C20.9998 7.032 16.9678 3 11.9998 3ZM11.9998 19.2C8.03076 19.2 4.79976 15.969 4.79976 12C4.79976 8.031 8.03076 4.8 11.9998 4.8C15.9688 4.8 19.1998 8.031 19.1998 12C19.1998 15.969 15.9688 19.2 11.9998 19.2Z" fill="#6366F1"/>
</svg>
