<svg width="24" height="24" viewBox="0 0 24 24" fill="none" xmlns="http://www.w3.org/2000/svg">
<path d="M14.5466 9.50026C14.5466 9.2042 14.5062 8.93505 14.4658 8.65244L16 7.29322L14.6542 4.96507L12.7029 5.62449C12.2723 5.26113 11.7878 4.97852 11.2495 4.77666L10.8458 2.77148H8.15424L7.75052 4.77666C7.21221 4.97852 6.72774 5.26113 6.2971 5.62449L4.34576 4.96507L3 7.29322L4.53416 8.65244C4.49379 8.93505 4.45342 9.2042 4.45342 9.50026C4.45342 9.79633 4.49379 10.0655 4.53416 10.3481L3 11.7073L4.34576 14.0355L6.2971 13.376C6.72774 13.7394 7.21221 14.022 7.75052 14.2239L8.15424 16.229H10.8458L11.2495 14.2239C11.7878 14.022 12.2723 13.7394 12.7029 13.376L14.6542 14.0355L16 11.7073L14.4658 10.3481C14.5062 10.0655 14.5466 9.79633 14.5466 9.50026ZM9.5 12.1918C8.01967 12.1918 6.80849 10.9806 6.80849 9.50026C6.80849 8.01993 8.01967 6.80875 9.5 6.80875C10.9803 6.80875 12.1915 8.01993 12.1915 9.50026C12.1915 10.9806 10.9803 12.1918 9.5 12.1918Z" fill="black"/>
<path d="M20.2174 17.5001C20.2174 17.3407 20.1957 17.1958 20.1739 17.0436L21 16.3117L20.2754 15.0581L19.2246 15.4132C18.9928 15.2175 18.7319 15.0654 18.442 14.9567L18.2246 13.877H16.7754L16.558 14.9567C16.2681 15.0654 16.0072 15.2175 15.7754 15.4132L14.7246 15.0581L14 16.3117L14.8261 17.0436C14.8043 17.1958 14.7826 17.3407 14.7826 17.5001C14.7826 17.6596 14.8043 17.8045 14.8261 17.9567L14 18.6885L14.7246 19.9422L15.7754 19.5871C16.0072 19.7828 16.2681 19.9349 16.558 20.0436L16.7754 21.1233H18.2246L18.442 20.0436C18.7319 19.9349 18.9928 19.7828 19.2246 19.5871L20.2754 19.9422L21 18.6885L20.1739 17.9567C20.1957 17.8045 20.2174 17.6596 20.2174 17.5001ZM17.5 18.9494C16.7029 18.9494 16.0507 18.2972 16.0507 17.5001C16.0507 16.703 16.7029 16.0509 17.5 16.0509C18.2971 16.0509 18.9493 16.703 18.9493 17.5001C18.9493 18.2972 18.2971 18.9494 17.5 18.9494Z" fill="black"/>
</svg>
