<svg width="24" height="24" viewBox="0 0 24 24" fill="none" xmlns="http://www.w3.org/2000/svg">
<path d="M12.5 21C13.5312 21 14.375 20.1692 14.375 19.1538H10.625C10.625 20.1692 11.4688 21 12.5 21ZM18.125 15.4615V10.8462C18.125 8.01231 16.5969 5.64 13.9062 5.01231V4.38462C13.9062 3.61846 13.2781 3 12.5 3C11.7219 3 11.0938 3.61846 11.0938 4.38462V5.01231C8.4125 5.64 6.875 8.00308 6.875 10.8462V15.4615L5 17.3077V18.2308H20V17.3077L18.125 15.4615ZM16.25 16.3846H8.75V10.8462C8.75 8.55692 10.1656 6.69231 12.5 6.69231C14.8344 6.69231 16.25 8.55692 16.25 10.8462V16.3846Z" fill="black"/>
</svg>
