<svg width="40" height="38" viewBox="0 0 40 38" fill="none" xmlns="http://www.w3.org/2000/svg">
<g clip-path="url(#clip0_3486_3888)">
<path d="M38.9543 4.58124H16.1992V33.5107H38.9543V4.58124Z" fill="white"/>
<path d="M15.3318 3.71307C14.4374 3.71307 13.7168 4.4348 13.7168 5.33311V32.6614C13.7168 33.558 14.4374 34.2814 15.3318 34.2814H38.3858C39.2801 34.2814 40.0007 33.558 40.0007 32.6614V5.33311C40.0007 4.4348 39.2801 3.71307 38.3858 3.71307H15.3318ZM15.0081 5.05539H38.6958V32.9237H15.0081V5.05539Z" fill="#1F7144"/>
<path d="M35.8511 7.73578H29.4727V11.2016H35.8511V7.73578Z" fill="#1F7144"/>
<path d="M28.1187 7.73578H21.7402V11.2016H28.1187V7.73578Z" fill="#1F7144"/>
<path d="M35.8511 12.4689H29.4727V15.9347H35.8511V12.4689Z" fill="#1F7144"/>
<path d="M28.1187 12.4532H21.7402V15.919H28.1187V12.4532Z" fill="#1F7144"/>
<path d="M35.8511 17.2668H29.4727V20.7327H35.8511V17.2668Z" fill="#1F7144"/>
<path d="M28.1187 17.2668H21.7402V20.7327H28.1187V17.2668Z" fill="#1F7144"/>
<path d="M35.8511 22.1198H29.4727V25.5857H35.8511V22.1198Z" fill="#1F7144"/>
<path d="M28.1187 22.0884H21.7402V25.5542H28.1187V22.0884Z" fill="#1F7144"/>
<path d="M35.8511 26.8903H29.4727V30.3561H35.8511V26.8903Z" fill="#1F7144"/>
<path d="M28.1187 26.8903H21.7402V30.3561H28.1187V26.8903Z" fill="#1F7144"/>
<path d="M22.7559 38V0L0 3.79897V34.1993L22.7559 38Z" fill="url(#paint0_linear_3486_3888)"/>
<path d="M8.90507 12.6503L10.4808 16.7715C10.5945 17.0149 10.6456 17.2763 10.6717 17.4521C10.6596 17.2472 10.7025 17.0872 10.8181 16.7715L12.6852 12.424L15.554 12.2525C14.3923 14.479 13.2752 16.7286 12.2031 19.0002L15.6971 25.9415L12.6052 25.7564L10.7262 21.2271C10.5792 20.8855 10.6075 20.8389 10.5779 20.6716C10.5643 20.7907 10.5595 20.8884 10.4808 21.1037L8.58991 25.5164L5.9375 25.3569L9.00387 19.0927L6.24414 12.8097L8.90507 12.6503Z" fill="white"/>
</g>
<defs>
<linearGradient id="paint0_linear_3486_3888" x1="22.7555" y1="19.0002" x2="0.000634748" y2="19.0002" gradientUnits="userSpaceOnUse">
<stop stop-color="#1D6B40"/>
<stop offset="1" stop-color="#217748"/>
</linearGradient>
<clipPath id="clip0_3486_3888">
<rect width="40" height="38" fill="white"/>
</clipPath>
</defs>
</svg>
