<svg width="36" height="36" viewBox="0 0 36 36" fill="none" xmlns="http://www.w3.org/2000/svg">
<path d="M26.7013 23.4866C26.2627 23.6161 25.6186 23.6307 24.9282 23.5305C24.1871 23.423 23.4312 23.1965 22.6882 22.8627C24.0131 22.6699 25.0409 22.7293 25.9201 23.0408C26.1283 23.1146 26.4704 23.3119 26.7013 23.4866ZM19.3093 22.2713C19.2554 22.286 19.2023 22.2998 19.1494 22.3145C18.793 22.4115 18.4461 22.5062 18.1118 22.5904L17.6611 22.7048C16.7545 22.9342 15.8275 23.1685 14.9119 23.4476C15.2598 22.6085 15.5831 21.7602 15.8996 20.9308C16.134 20.3168 16.3733 19.6896 16.6208 19.0705C16.7464 19.2778 16.8774 19.4853 17.0137 19.6933C17.6349 20.6393 18.4158 21.514 19.3093 22.2713ZM17.003 12.8093C17.0618 13.8447 16.8384 14.8407 16.5107 15.7963C16.1071 14.6147 15.919 13.31 16.4236 12.2566C16.553 11.9866 16.6591 11.8423 16.7278 11.767C16.834 11.9309 16.9737 12.2978 17.003 12.8093ZM12.2697 25.9249C12.0429 26.3306 11.8114 26.7104 11.5742 27.069C11.0016 27.9319 10.0651 28.8559 9.58408 28.8559C9.53674 28.8559 9.47945 28.8482 9.39574 28.7599C9.34186 28.7033 9.33323 28.6628 9.33584 28.6076C9.35206 28.2903 9.77241 27.7253 10.3814 27.2014C10.9341 26.7261 11.5588 26.3036 12.2697 25.9249ZM28.2331 23.5315C28.1596 22.4747 26.3807 21.7967 26.3631 21.7904C25.6754 21.5466 24.9283 21.4282 24.0793 21.4282C23.1704 21.4282 22.1905 21.5597 20.932 21.8537C19.8122 21.0599 18.8449 20.0661 18.1222 18.966C17.803 18.4799 17.5161 17.9947 17.266 17.5208C17.8766 16.0609 18.4264 14.4912 18.3265 12.7331C18.2459 11.3234 17.6103 10.3765 16.7458 10.3765C16.1528 10.3765 15.6422 10.8158 15.2271 11.6832C14.4865 13.2288 14.6811 15.2066 15.8054 17.5666C15.4005 18.5176 15.0243 19.5035 14.6602 20.458C14.2071 21.6448 13.7403 22.8693 13.2141 24.034C11.7386 24.6179 10.5264 25.3259 9.51623 26.1951C8.85444 26.7636 8.05662 27.6325 8.01108 28.5396C7.98885 28.9669 8.13533 29.3586 8.43301 29.6726C8.74926 30.0058 9.14657 30.1813 9.58344 30.1819C11.0263 30.1819 12.415 28.1994 12.6784 27.8018C13.2086 27.0026 13.7049 26.1112 14.1912 25.0829C15.4159 24.6403 16.7211 24.3099 17.9861 23.9906L18.4392 23.8755C18.7797 23.7889 19.1337 23.6931 19.4968 23.5938C19.881 23.4899 20.2762 23.3822 20.678 23.2799C21.977 24.106 23.3739 24.6448 24.7362 24.8425C25.8837 25.0095 26.9028 24.9126 27.5926 24.553C28.2133 24.2297 28.2475 23.7308 28.2331 23.5315ZM31.0276 32.6185C31.0276 34.5539 29.3218 34.6732 28.9776 34.6771H6.96998C5.04163 34.6771 4.92551 32.9596 4.92183 32.6185L4.92157 3.38078C4.92157 1.44351 6.63048 1.32606 6.96972 1.32217H21.8363L21.8442 1.33002V7.13156C21.8442 8.29587 22.5481 10.5002 25.2138 10.5002H30.9779L31.0274 10.5496L31.0276 32.6185ZM29.6611 9.17784H25.2148C23.287 9.17784 23.1704 7.46972 23.1678 7.13175V2.65776L29.6611 9.17784ZM32.3498 32.6185V10.0041L23.1678 0.78392V0.741021H23.1238L22.3864 0H6.97003C5.8042 0 3.59961 0.706802 3.59961 3.3814V32.6191C3.59961 33.7884 4.30427 36 6.97003 36H28.9797C30.1453 35.9997 32.3498 35.2929 32.3498 32.6185Z" fill="#EB5757"/>
</svg>
