<svg width="25" height="24" viewBox="0 0 25 24" fill="none" xmlns="http://www.w3.org/2000/svg">
<path d="M15.626 13.8462L15.442 12.8103L19.932 8.31925L17.081 5.46725L12.589 9.95725L11.554 9.77325C10.6353 9.60855 9.68897 9.70166 8.82 10.0422L15.358 16.5793C15.6981 15.7105 15.7908 14.7645 15.626 13.8462ZM11.376 15.4502L5.67 21.1542C5.4809 21.3433 5.22443 21.4496 4.957 21.4496C4.68958 21.4496 4.4331 21.3433 4.244 21.1542C4.0549 20.9651 3.94867 20.7087 3.94867 20.4412C3.94867 20.1738 4.0549 19.9174 4.244 19.7283L9.949 14.0243L5.67 9.74525C6.47422 8.93979 7.46148 8.341 8.54742 8.00003C9.63337 7.65906 10.7857 7.58606 11.906 7.78725L15.653 4.04025C15.8403 3.85287 16.0627 3.70424 16.3075 3.60283C16.5522 3.50141 16.8146 3.44922 17.0795 3.44922C17.3444 3.44922 17.6068 3.50141 17.8516 3.60283C18.0963 3.70424 18.3187 3.85287 18.506 4.04025L21.358 6.89325C21.7361 7.27149 21.9485 7.78442 21.9485 8.31925C21.9485 8.85408 21.7361 9.36701 21.358 9.74525L17.611 13.4922C17.8122 14.6125 17.7392 15.7649 17.3982 16.8508C17.0573 17.9368 16.4585 18.924 15.653 19.7283L11.376 15.4502Z" fill="#697077"/>
</svg>
