<svg width="15" height="14" viewBox="0 0 15 14" fill="none" xmlns="http://www.w3.org/2000/svg">
<path d="M7.75103 6.99982C7.10958 6.99982 6.58476 6.475 6.58476 5.83355C6.58476 5.1921 7.10958 4.66727 7.75103 4.66727C8.39248 4.66727 8.9173 5.1921 8.9173 5.83355C8.9173 6.475 8.39248 6.99982 7.75103 6.99982ZM11.2498 5.95017C11.2498 3.83339 9.70454 2.33473 7.75103 2.33473C5.79752 2.33473 4.25221 3.83339 4.25221 5.95017C4.25221 7.31471 5.38933 9.12244 7.75103 11.28C10.1127 9.12244 11.2498 7.31471 11.2498 5.95017ZM7.75103 1.16846C10.2002 1.16846 12.4161 3.04616 12.4161 5.95017C12.4161 7.88619 10.8591 10.1779 7.75103 12.8312C4.64291 10.1779 3.08594 7.88619 3.08594 5.95017C3.08594 3.04616 5.30186 1.16846 7.75103 1.16846Z" fill="#9B9B9B"/>
</svg>
