<svg width="25" height="24" viewBox="0 0 25 24" fill="none" xmlns="http://www.w3.org/2000/svg">
<path d="M13.9 11.4004V6.40039C13.9 6.13517 13.7947 5.88082 13.6071 5.69328C13.4196 5.50575 13.1652 5.40039 12.9 5.40039C12.6348 5.40039 12.3805 5.50575 12.1929 5.69328C12.0054 5.88082 11.9 6.13517 11.9 6.40039V11.4004H6.90002C6.63481 11.4004 6.38045 11.5057 6.19292 11.6933C6.00538 11.8808 5.90002 12.1352 5.90002 12.4004C5.90002 12.6656 6.00538 12.92 6.19292 13.1075C6.38045 13.295 6.63481 13.4004 6.90002 13.4004H11.9V18.4004C11.9 18.6656 12.0054 18.92 12.1929 19.1075C12.3805 19.295 12.6348 19.4004 12.9 19.4004C13.1652 19.4004 13.4196 19.295 13.6071 19.1075C13.7947 18.92 13.9 18.6656 13.9 18.4004V13.4004H18.9C19.1652 13.4004 19.4196 13.295 19.6071 13.1075C19.7947 12.92 19.9 12.6656 19.9 12.4004C19.9 12.1352 19.7947 11.8808 19.6071 11.6933C19.4196 11.5057 19.1652 11.4004 18.9 11.4004H13.9Z" fill="#697077"/>
</svg>
