<svg width="16" height="17" viewBox="0 0 16 17" fill="none" xmlns="http://www.w3.org/2000/svg">
<path fill-rule="evenodd" clip-rule="evenodd" d="M6.99506 1.94727C6.10699 1.94734 5.23181 2.15979 4.44254 2.56689C3.65327 2.97399 2.9728 3.56394 2.4579 4.28751C1.943 5.01107 1.60861 5.84729 1.48261 6.72638C1.35661 7.60547 1.44267 8.50194 1.7336 9.34101C2.02453 10.1801 2.5119 10.9374 3.15504 11.5498C3.79819 12.1622 4.57846 12.6119 5.43076 12.8614C6.28306 13.111 7.18267 13.153 8.05454 12.9842C8.92641 12.8153 9.74526 12.4404 10.4428 11.8907L12.8356 14.2835C12.9592 14.4029 13.1247 14.4689 13.2965 14.4674C13.4682 14.4659 13.6326 14.397 13.7541 14.2755C13.8755 14.154 13.9444 13.9897 13.9459 13.8179C13.9474 13.6461 13.8814 13.4806 13.762 13.357L11.3692 10.9642C12.0166 10.143 12.4196 9.15612 12.5323 8.11652C12.6449 7.07692 12.4626 6.0266 12.0062 5.08577C11.5498 4.14494 10.8378 3.35161 9.95155 2.79657C9.06533 2.24152 8.04075 1.9472 6.99506 1.94727ZM2.73621 7.51653C2.73621 6.38701 3.18491 5.30376 3.9836 4.50507C4.78229 3.70638 5.86554 3.25768 6.99506 3.25768C8.12458 3.25768 9.20783 3.70638 10.0065 4.50507C10.8052 5.30376 11.2539 6.38701 11.2539 7.51653C11.2539 8.64605 10.8052 9.7293 10.0065 10.528C9.20783 11.3267 8.12458 11.7754 6.99506 11.7754C5.86554 11.7754 4.78229 11.3267 3.9836 10.528C3.18491 9.7293 2.73621 8.64605 2.73621 7.51653Z" fill="#9B9B9B"/>
</svg>
