<svg xmlns="http://www.w3.org/2000/svg" width="22" height="17" viewBox="0 0 22 17" fill="none" stroke="currentColor" stroke-width="2" stroke-linecap="round" stroke-linejoin="round">
  <path d="M12.7304 1.83054C12.5545 1.57793 12.3021 1.36824 11.9984 1.22248C11.6948 1.07672 11.3505 1 11 1C10.6495 1 10.3052 1.07672 10.0016 1.22248C9.69789 1.36824 9.44549 1.57793 9.26965 1.83054L1.268 13.4995C1.09252 13.7528 1.00009 14.0401 1 14.3326C0.99991 14.6251 1.09216 14.9124 1.26749 15.1658C1.44282 15.4191 1.69506 15.6296 1.99887 15.776C2.30269 15.9225 2.64739 15.9997 2.99836 16H19.0016C19.3526 15.9997 19.6973 15.9225 20.0011 15.776C20.3049 15.6296 20.5572 15.4191 20.7325 15.1658C20.9078 14.9124 21.0001 14.6251 21 14.3326C20.9999 14.0401 20.9075 13.7528 20.732 13.4995L12.7304 1.83054Z" />
</svg>