<svg width="91" height="66" viewBox="0 0 91 66" fill="none" xmlns="http://www.w3.org/2000/svg">
<path d="M11.75 65.7825H6.125C4.69063 65.7825 3.24219 65.2314 2.14531 64.1292C1.04844 63.0271 0.5 61.5858 0.5 60.1303V3.60858H11.75V65.7825Z" fill="#C9C9C9"/>
<path d="M90.5 3.60858H38.4688V9.26076H90.5V3.60858Z" fill="#C9C9C9"/>
<path d="M87.6855 60.1303C87.6855 61.5717 87.1371 63.0271 86.0402 64.1293C84.9434 65.2314 83.509 65.7825 82.0605 65.7825H6.12305V6.43469H87.6855V60.1303Z" fill="white"/>
<path d="M90.498 60.1322C90.498 61.5735 89.9496 63.0289 88.8527 64.1311C87.7559 65.2333 86.3215 65.7844 84.873 65.7844H6.12305C7.55742 65.7844 9.00586 65.2333 10.1027 64.1311C11.1996 63.0289 11.748 61.5876 11.748 60.1322V0.784363H35.6543L46.9043 9.26262H90.498V60.1322Z" fill="white"/>
<path d="M44.0938 34.696V57.3047H58.1563V34.696H68L51.125 17.7395L34.25 34.696H44.0938Z" fill="#C9C9C9"/>
</svg>
