<svg width="38" height="38" viewBox="0 0 38 38" fill="none" xmlns="http://www.w3.org/2000/svg">
<path d="M6.33325 9.49967C6.33325 7.75077 7.75102 6.33301 9.49992 6.33301H12.6666C14.4155 6.33301 15.8333 7.75077 15.8333 9.49967V12.6663C15.8333 14.4152 14.4155 15.833 12.6666 15.833H9.49992C7.75102 15.833 6.33325 14.4152 6.33325 12.6663V9.49967Z" stroke="black" stroke-width="3" stroke-linecap="round" stroke-linejoin="round"/>
<path d="M22.1666 9.49967C22.1666 7.75077 23.5843 6.33301 25.3333 6.33301H28.4999C30.2488 6.33301 31.6666 7.75077 31.6666 9.49967V12.6663C31.6666 14.4152 30.2488 15.833 28.4999 15.833H25.3333C23.5843 15.833 22.1666 14.4152 22.1666 12.6663V9.49967Z" stroke="black" stroke-width="3" stroke-linecap="round" stroke-linejoin="round"/>
<path d="M6.33325 25.333C6.33325 23.5841 7.75102 22.1663 9.49992 22.1663H12.6666C14.4155 22.1663 15.8333 23.5841 15.8333 25.333V28.4997C15.8333 30.2486 14.4155 31.6663 12.6666 31.6663H9.49992C7.75102 31.6663 6.33325 30.2486 6.33325 28.4997V25.333Z" stroke="black" stroke-width="3" stroke-linecap="round" stroke-linejoin="round"/>
<path d="M22.1666 25.333C22.1666 23.5841 23.5843 22.1663 25.3333 22.1663H28.4999C30.2488 22.1663 31.6666 23.5841 31.6666 25.333V28.4997C31.6666 30.2486 30.2488 31.6663 28.4999 31.6663H25.3333C23.5843 31.6663 22.1666 30.2486 22.1666 28.4997V25.333Z" stroke="black" stroke-width="3" stroke-linecap="round" stroke-linejoin="round"/>
</svg>
